M48
; DRILL file {KiCad (7.0.0)} date Thu Apr  6 13:54:34 2023
; FORMAT={3:3/ absolute / metric / suppress leading zeros}
; #@! TF.CreationDate,2023-04-06T13:54:34+09:00
; #@! TF.GenerationSoftware,Kicad,Pcbnew,(7.0.0)
; #@! TF.FileFunction,MixedPlating,1,2
FMAT,2
METRIC,TZ
; #@! TA.AperFunction,Plated,PTH,ViaDrill
T1C0.300
; #@! TA.AperFunction,Plated,PTH,ViaDrill
T2C0.600
; #@! TA.AperFunction,Plated,PTH,ComponentDrill
T3C0.800
; #@! TA.AperFunction,Plated,PTH,ComponentDrill
T4C0.890
; #@! TA.AperFunction,Plated,PTH,ComponentDrill
T5C1.000
; #@! TA.AperFunction,Plated,PTH,ComponentDrill
T6C1.020
; #@! TA.AperFunction,Plated,PTH,ComponentDrill
T7C1.100
; #@! TA.AperFunction,Plated,PTH,ComponentDrill
T8C1.200
; #@! TA.AperFunction,Plated,PTH,ComponentDrill
T9C1.700
; #@! TA.AperFunction,Plated,PTH,ComponentDrill
T10C3.200
; #@! TA.AperFunction,NonPlated,NPTH,ComponentDrill
T11C3.200
%
G90
G05
T1
X95000Y-95000
X100000Y-95000
X100000Y-100000
X100000Y-105000
X100000Y-110000
X100000Y-115000
X105000Y-100000
X105000Y-110000
X105000Y-115000
X105000Y-120000
X105000Y-125000
X110000Y-95000
X110000Y-100000
X110000Y-110000
X110000Y-115000
X110000Y-120000
X110000Y-125000
X115000Y-95000
X115000Y-100000
X115000Y-105000
X115000Y-110000
X115000Y-130000
X115000Y-135000
X117500Y-105000
X117500Y-107500
X117500Y-115000
X120000Y-90000
X120000Y-115000
X120000Y-130000
X120000Y-135000
X122500Y-110000
X122500Y-112500
X123000Y-107000
X125000Y-110000
X125000Y-115000
X125000Y-120000
X125000Y-125000
X125000Y-130000
X125500Y-102500
X130000Y-90000
X130000Y-115000
X130000Y-120000
X130000Y-125000
X131500Y-106000
X132000Y-123000
X135000Y-105000
X135000Y-120000
X135000Y-125000
X136000Y-99000
X137000Y-108851
X140000Y-90000
X140000Y-105000
X140000Y-120000
X140000Y-125000
X142500Y-120000
X142500Y-125000
X145000Y-105000
X145000Y-120000
X145000Y-125000
X146000Y-99000
X147500Y-120000
X147500Y-125000
X150000Y-90000
X150000Y-105000
X150000Y-120000
X150000Y-125000
X150000Y-135000
X153000Y-98000
X155000Y-105000
X155000Y-120000
X155000Y-125000
X160000Y-90000
X160000Y-105000
X162500Y-112500
X163000Y-98000
X165000Y-105000
X165000Y-120000
X165000Y-125000
X169500Y-121500
X170000Y-90000
X170000Y-105000
X170000Y-112500
X170000Y-130000
X170000Y-135000
X172500Y-110000
X172500Y-120000
X175000Y-105000
X177500Y-120000
X180000Y-90000
X180000Y-97500
X180000Y-105000
X180129Y-113105
X184500Y-117000
X185000Y-95000
X185000Y-105000
X185000Y-110000
X185000Y-120000
X190000Y-105000
X190000Y-110000
X190000Y-120000
X195000Y-105000
X195000Y-110000
X195000Y-115000
X195000Y-120000
X210000Y-95000
X210000Y-100000
X210000Y-105000
X210000Y-110000
X210000Y-115000
X210000Y-120000
X210000Y-125000
X210000Y-130000
T2
X114000Y-114500
X121000Y-101500
T3
X130800Y-130000
X130800Y-137620
X133340Y-130000
X133340Y-137620
X135880Y-130000
X135880Y-137620
X138420Y-130000
X138420Y-137620
X140960Y-130000
X140960Y-137620
X143500Y-130000
X143500Y-137620
X146040Y-130000
X146040Y-137620
X148580Y-130000
X148580Y-137620
X175740Y-109182
X175740Y-111182
X175740Y-113182
X177740Y-109182
X177740Y-111182
X177740Y-113182
T4
X165110Y-127130
X166380Y-124500
X167650Y-127130
X168920Y-124500
X170190Y-127130
X171460Y-124500
X172730Y-127040
X174000Y-124500
T5
X114920Y-124500
X117460Y-124500
X120000Y-124500
T6
X162835Y-135930
X162835Y-137960
X176285Y-135930
X176285Y-137960
T7
X132290Y-100380
X132290Y-115620
X134830Y-100380
X134830Y-115620
X137370Y-100380
X137370Y-115620
X139910Y-100380
X139910Y-115620
X142450Y-100380
X142450Y-115620
X144990Y-100380
X144990Y-115620
X147530Y-100380
X147530Y-115620
X150070Y-100380
X150070Y-115620
X152610Y-100380
X152610Y-115620
X155150Y-100380
X155150Y-115620
X157690Y-100380
X157690Y-115620
X160230Y-100380
X160230Y-115620
X162770Y-100380
X162770Y-115620
X165310Y-100380
X165310Y-115620
X167850Y-100380
X167850Y-115620
X170390Y-100380
X170390Y-115620
X172930Y-100380
X172930Y-115620
X175470Y-100380
X175470Y-115620
X178010Y-100380
X178010Y-115620
X180550Y-100380
X180550Y-115620
X183090Y-100380
X183090Y-115620
X185630Y-100380
X185630Y-115620
X188170Y-100380
X188170Y-115620
X190710Y-100380
X190710Y-115620
T8
X95000Y-99570
X95000Y-103380
X95000Y-107190
X95000Y-111000
X113040Y-87933
X116850Y-87933
X123290Y-87933
X127100Y-87933
X133540Y-87933
X137350Y-87933
X143790Y-87933
X147600Y-87933
X154040Y-87933
X157850Y-87933
X164290Y-87933
X168100Y-87933
X174540Y-87933
X178350Y-87933
X184790Y-87933
X188600Y-87933
T9
X161685Y-130340
X177435Y-130340
T10
X106000Y-91500
X106000Y-131500
X156000Y-131500
X196000Y-91500
X196000Y-131500
T11
X163845Y-133390
X175275Y-133390
T5
G00X93700Y-120400
M15
G01X93700Y-122600
M16
G05
G00X98200Y-126300
M15
G01X96000Y-126300
M16
G05
G00X100000Y-120200
M15
G01X100000Y-122800
M16
G05
T0
M30
