%TF.GenerationSoftware,KiCad,Pcbnew,(7.0.0)*%
%TF.CreationDate,2023-04-06T13:54:24+09:00*%
%TF.ProjectId,Artnet_pixel_controller_Teensy-hardware,4172746e-6574-45f7-9069-78656c5f636f,rev?*%
%TF.SameCoordinates,Original*%
%TF.FileFunction,Soldermask,Top*%
%TF.FilePolarity,Negative*%
%FSLAX46Y46*%
G04 Gerber Fmt 4.6, Leading zero omitted, Abs format (unit mm)*
G04 Created by KiCad (PCBNEW (7.0.0)) date 2023-04-06 13:54:24*
%MOMM*%
%LPD*%
G01*
G04 APERTURE LIST*
G04 Aperture macros list*
%AMRoundRect*
0 Rectangle with rounded corners*
0 $1 Rounding radius*
0 $2 $3 $4 $5 $6 $7 $8 $9 X,Y pos of 4 corners*
0 Add a 4 corners polygon primitive as box body*
4,1,4,$2,$3,$4,$5,$6,$7,$8,$9,$2,$3,0*
0 Add four circle primitives for the rounded corners*
1,1,$1+$1,$2,$3*
1,1,$1+$1,$4,$5*
1,1,$1+$1,$6,$7*
1,1,$1+$1,$8,$9*
0 Add four rect primitives between the rounded corners*
20,1,$1+$1,$2,$3,$4,$5,0*
20,1,$1+$1,$4,$5,$6,$7,0*
20,1,$1+$1,$6,$7,$8,$9,0*
20,1,$1+$1,$8,$9,$2,$3,0*%
G04 Aperture macros list end*
%ADD10RoundRect,0.225000X0.225000X0.250000X-0.225000X0.250000X-0.225000X-0.250000X0.225000X-0.250000X0*%
%ADD11C,6.400000*%
%ADD12RoundRect,0.250000X-1.550000X0.650000X-1.550000X-0.650000X1.550000X-0.650000X1.550000X0.650000X0*%
%ADD13O,3.600000X1.800000*%
%ADD14RoundRect,0.100000X0.100000X-0.637500X0.100000X0.637500X-0.100000X0.637500X-0.100000X-0.637500X0*%
%ADD15RoundRect,0.200000X0.200000X0.275000X-0.200000X0.275000X-0.200000X-0.275000X0.200000X-0.275000X0*%
%ADD16RoundRect,0.200000X0.275000X-0.200000X0.275000X0.200000X-0.275000X0.200000X-0.275000X-0.200000X0*%
%ADD17RoundRect,0.200000X-0.200000X-0.275000X0.200000X-0.275000X0.200000X0.275000X-0.200000X0.275000X0*%
%ADD18R,2.000000X4.600000*%
%ADD19O,2.000000X4.200000*%
%ADD20O,4.200000X2.000000*%
%ADD21RoundRect,0.250000X-0.300000X0.300000X-0.300000X-0.300000X0.300000X-0.300000X0.300000X0.300000X0*%
%ADD22RoundRect,0.250000X0.325000X0.650000X-0.325000X0.650000X-0.325000X-0.650000X0.325000X-0.650000X0*%
%ADD23R,1.600000X1.600000*%
%ADD24C,1.600000*%
%ADD25R,1.300000X1.300000*%
%ADD26C,1.300000*%
%ADD27O,1.600000X1.600000*%
%ADD28O,1.800000X3.600000*%
%ADD29RoundRect,0.250000X0.650000X1.550000X-0.650000X1.550000X-0.650000X-1.550000X0.650000X-1.550000X0*%
%ADD30C,1.524000*%
%ADD31R,1.524000X1.524000*%
%ADD32C,2.700000*%
%ADD33RoundRect,0.150000X0.587500X0.150000X-0.587500X0.150000X-0.587500X-0.150000X0.587500X-0.150000X0*%
%ADD34R,1.500000X2.300000*%
%ADD35O,1.500000X2.300000*%
%ADD36RoundRect,0.250000X-0.250000X-0.475000X0.250000X-0.475000X0.250000X0.475000X-0.250000X0.475000X0*%
%ADD37RoundRect,0.200000X-0.275000X0.200000X-0.275000X-0.200000X0.275000X-0.200000X0.275000X0.200000X0*%
%ADD38RoundRect,0.225000X-0.250000X0.225000X-0.250000X-0.225000X0.250000X-0.225000X0.250000X0.225000X0*%
%ADD39RoundRect,0.218750X-0.218750X-0.256250X0.218750X-0.256250X0.218750X0.256250X-0.218750X0.256250X0*%
G04 APERTURE END LIST*
D10*
%TO.C,C3*%
X168000000Y-121500000D03*
X166450000Y-121500000D03*
%TD*%
D11*
%TO.C,H5*%
X196000000Y-91500000D03*
%TD*%
D12*
%TO.C,J11*%
X95000000Y-99570000D03*
D13*
X94999999Y-103379999D03*
X94999999Y-107189999D03*
X94999999Y-110999999D03*
%TD*%
D14*
%TO.C,U3*%
X124075000Y-106862500D03*
X124725000Y-106862500D03*
X125375000Y-106862500D03*
X126025000Y-106862500D03*
X126675000Y-106862500D03*
X127325000Y-106862500D03*
X127975000Y-106862500D03*
X128625000Y-106862500D03*
X129275000Y-106862500D03*
X129925000Y-106862500D03*
X129925000Y-101137500D03*
X129275000Y-101137500D03*
X128625000Y-101137500D03*
X127975000Y-101137500D03*
X127325000Y-101137500D03*
X126675000Y-101137500D03*
X126025000Y-101137500D03*
X125375000Y-101137500D03*
X124725000Y-101137500D03*
X124075000Y-101137500D03*
%TD*%
D15*
%TO.C,R3*%
X114150000Y-92500000D03*
X112500000Y-92500000D03*
%TD*%
D16*
%TO.C,R2*%
X159000000Y-125500000D03*
X159000000Y-123850000D03*
%TD*%
D17*
%TO.C,R9*%
X173500000Y-92500000D03*
X175150000Y-92500000D03*
%TD*%
D18*
%TO.C,J1*%
X99999999Y-121499999D03*
D19*
X93699999Y-121499999D03*
D20*
X97099999Y-126299999D03*
%TD*%
D21*
%TO.C,D1*%
X108000000Y-105100000D03*
X108000000Y-107900000D03*
%TD*%
D22*
%TO.C,C1*%
X121503000Y-117707500D03*
X118553000Y-117707500D03*
%TD*%
D11*
%TO.C,H6*%
X196000000Y-131500000D03*
%TD*%
D23*
%TO.C,U2*%
X190709999Y-100379999D03*
D24*
X188170000Y-100380000D03*
X185630000Y-100380000D03*
X183090000Y-100380000D03*
X180550000Y-100380000D03*
X178010000Y-100380000D03*
X175470000Y-100380000D03*
X172930000Y-100380000D03*
X170390000Y-100380000D03*
X167850000Y-100380000D03*
X165310000Y-100380000D03*
X162770000Y-100380000D03*
X160230000Y-100380000D03*
X157690000Y-100380000D03*
X155150000Y-100380000D03*
X152610000Y-100380000D03*
X150070000Y-100380000D03*
X147530000Y-100380000D03*
X144990000Y-100380000D03*
X142450000Y-100380000D03*
X139910000Y-100380000D03*
X137370000Y-100380000D03*
X134830000Y-100380000D03*
X132290000Y-100380000D03*
X132290000Y-115620000D03*
X134830000Y-115620000D03*
X137370000Y-115620000D03*
X139910000Y-115620000D03*
X142450000Y-115620000D03*
X144990000Y-115620000D03*
X147530000Y-115620000D03*
X150070000Y-115620000D03*
X152610000Y-115620000D03*
X155150000Y-115620000D03*
X157690000Y-115620000D03*
X160230000Y-115620000D03*
X162770000Y-115620000D03*
X165310000Y-115620000D03*
X167850000Y-115620000D03*
X170390000Y-115620000D03*
X172930000Y-115620000D03*
X175470000Y-115620000D03*
X178010000Y-115620000D03*
X180550000Y-115620000D03*
X183090000Y-115620000D03*
X185630000Y-115620000D03*
X188170000Y-115620000D03*
X190710000Y-115620000D03*
D25*
X177739999Y-113181599D03*
D26*
X177740000Y-111181600D03*
X177740000Y-109181600D03*
X175740000Y-109181600D03*
X175740000Y-111181600D03*
X175740000Y-113181600D03*
%TD*%
D23*
%TO.C,SW1*%
X130799999Y-137619999D03*
D27*
X133339999Y-137619999D03*
X135879999Y-137619999D03*
X138419999Y-137619999D03*
X140959999Y-137619999D03*
X143499999Y-137619999D03*
X146039999Y-137619999D03*
X148579999Y-137619999D03*
X148579999Y-129999999D03*
X146039999Y-129999999D03*
X143499999Y-129999999D03*
X140959999Y-129999999D03*
X138419999Y-129999999D03*
X135879999Y-129999999D03*
X133339999Y-129999999D03*
X130799999Y-129999999D03*
%TD*%
D28*
%TO.C,J6*%
X143789999Y-87932499D03*
D29*
X147600000Y-87932500D03*
%TD*%
D28*
%TO.C,J5*%
X133539999Y-87932499D03*
D29*
X137350000Y-87932500D03*
%TD*%
D17*
%TO.C,R5*%
X133000000Y-92500000D03*
X134650000Y-92500000D03*
%TD*%
D11*
%TO.C,H1*%
X106000000Y-91500000D03*
%TD*%
D30*
%TO.C,J2*%
X175275000Y-133390000D03*
X163845000Y-133390000D03*
D31*
X173999999Y-124499999D03*
X172729999Y-127039999D03*
X171459999Y-124499999D03*
X170189999Y-127129999D03*
X168919999Y-124499999D03*
X167649999Y-127129999D03*
X166379999Y-124499999D03*
X165109999Y-127129999D03*
D24*
X176285000Y-135930000D03*
X176285000Y-137960000D03*
X162835000Y-135930000D03*
X162835000Y-137960000D03*
D32*
X177435000Y-130340000D03*
X161685000Y-130340000D03*
%TD*%
D11*
%TO.C,H4*%
X156000000Y-131500000D03*
%TD*%
D29*
%TO.C,J9*%
X178350000Y-87932500D03*
D28*
X174539999Y-87932499D03*
%TD*%
D15*
%TO.C,R4*%
X124150000Y-92500000D03*
X122500000Y-92500000D03*
%TD*%
D17*
%TO.C,R6*%
X143000000Y-92500000D03*
X144650000Y-92500000D03*
%TD*%
D33*
%TO.C,Q1*%
X103000000Y-107400000D03*
X103000000Y-105500000D03*
X101125000Y-106450000D03*
%TD*%
D17*
%TO.C,R8*%
X163500000Y-92500000D03*
X165150000Y-92500000D03*
%TD*%
D28*
%TO.C,J4*%
X123289999Y-87932499D03*
D29*
X127100000Y-87932500D03*
%TD*%
D28*
%TO.C,J8*%
X164289999Y-87932499D03*
D29*
X168100000Y-87932500D03*
%TD*%
D28*
%TO.C,J7*%
X154039999Y-87932499D03*
D29*
X157850000Y-87932500D03*
%TD*%
D34*
%TO.C,U1*%
X119999999Y-124499999D03*
D35*
X117459999Y-124499999D03*
X114919999Y-124499999D03*
%TD*%
D36*
%TO.C,C2*%
X113653000Y-117707500D03*
X115553000Y-117707500D03*
%TD*%
D11*
%TO.C,H2*%
X106000000Y-131500000D03*
%TD*%
D17*
%TO.C,R11*%
X123675000Y-134000000D03*
X125325000Y-134000000D03*
%TD*%
D28*
%TO.C,J3*%
X113039999Y-87932499D03*
D29*
X116850000Y-87932500D03*
%TD*%
D28*
%TO.C,J10*%
X184789999Y-87932499D03*
D29*
X188600000Y-87932500D03*
%TD*%
D37*
%TO.C,R1*%
X108000000Y-110350000D03*
X108000000Y-112000000D03*
%TD*%
D17*
%TO.C,R10*%
X184000000Y-92500000D03*
X185650000Y-92500000D03*
%TD*%
D38*
%TO.C,C4*%
X122500000Y-100950000D03*
X122500000Y-102500000D03*
%TD*%
D39*
%TO.C,D2*%
X123712500Y-137500000D03*
X125287500Y-137500000D03*
%TD*%
D17*
%TO.C,R7*%
X153350000Y-92500000D03*
X155000000Y-92500000D03*
%TD*%
M02*
