%TF.GenerationSoftware,KiCad,Pcbnew,(7.0.0)*%
%TF.CreationDate,2023-04-06T13:54:24+09:00*%
%TF.ProjectId,Artnet_pixel_controller_Teensy-hardware,4172746e-6574-45f7-9069-78656c5f636f,rev?*%
%TF.SameCoordinates,Original*%
%TF.FileFunction,Legend,Bot*%
%TF.FilePolarity,Positive*%
%FSLAX46Y46*%
G04 Gerber Fmt 4.6, Leading zero omitted, Abs format (unit mm)*
G04 Created by KiCad (PCBNEW (7.0.0)) date 2023-04-06 13:54:24*
%MOMM*%
%LPD*%
G01*
G04 APERTURE LIST*
%ADD10C,0.300000*%
G04 APERTURE END LIST*
D10*
X184114333Y-91100000D02*
X184114333Y-91366666D01*
X184114333Y-91366666D02*
X184181000Y-91500000D01*
X184181000Y-91500000D02*
X184314333Y-91633333D01*
X184314333Y-91633333D02*
X184581000Y-91700000D01*
X184581000Y-91700000D02*
X185047666Y-91700000D01*
X185047666Y-91700000D02*
X185314333Y-91633333D01*
X185314333Y-91633333D02*
X185447666Y-91500000D01*
X185447666Y-91500000D02*
X185514333Y-91366666D01*
X185514333Y-91366666D02*
X185514333Y-91100000D01*
X185514333Y-91100000D02*
X185447666Y-90966666D01*
X185447666Y-90966666D02*
X185314333Y-90833333D01*
X185314333Y-90833333D02*
X185047666Y-90766666D01*
X185047666Y-90766666D02*
X184581000Y-90766666D01*
X184581000Y-90766666D02*
X184314333Y-90833333D01*
X184314333Y-90833333D02*
X184181000Y-90966666D01*
X184181000Y-90966666D02*
X184114333Y-91100000D01*
X184114333Y-92300000D02*
X185247666Y-92300000D01*
X185247666Y-92300000D02*
X185381000Y-92366667D01*
X185381000Y-92366667D02*
X185447666Y-92433333D01*
X185447666Y-92433333D02*
X185514333Y-92566667D01*
X185514333Y-92566667D02*
X185514333Y-92833333D01*
X185514333Y-92833333D02*
X185447666Y-92966667D01*
X185447666Y-92966667D02*
X185381000Y-93033333D01*
X185381000Y-93033333D02*
X185247666Y-93100000D01*
X185247666Y-93100000D02*
X184114333Y-93100000D01*
X184114333Y-93566667D02*
X184114333Y-94366667D01*
X185514333Y-93966667D02*
X184114333Y-93966667D01*
X185514333Y-95566667D02*
X185514333Y-94766667D01*
X185514333Y-95166667D02*
X184114333Y-95166667D01*
X184114333Y-95166667D02*
X184314333Y-95033334D01*
X184314333Y-95033334D02*
X184447666Y-94900001D01*
X184447666Y-94900001D02*
X184514333Y-94766667D01*
X188181000Y-91566666D02*
X188114333Y-91433333D01*
X188114333Y-91433333D02*
X188114333Y-91233333D01*
X188114333Y-91233333D02*
X188181000Y-91033333D01*
X188181000Y-91033333D02*
X188314333Y-90900000D01*
X188314333Y-90900000D02*
X188447666Y-90833333D01*
X188447666Y-90833333D02*
X188714333Y-90766666D01*
X188714333Y-90766666D02*
X188914333Y-90766666D01*
X188914333Y-90766666D02*
X189181000Y-90833333D01*
X189181000Y-90833333D02*
X189314333Y-90900000D01*
X189314333Y-90900000D02*
X189447666Y-91033333D01*
X189447666Y-91033333D02*
X189514333Y-91233333D01*
X189514333Y-91233333D02*
X189514333Y-91366666D01*
X189514333Y-91366666D02*
X189447666Y-91566666D01*
X189447666Y-91566666D02*
X189381000Y-91633333D01*
X189381000Y-91633333D02*
X188914333Y-91633333D01*
X188914333Y-91633333D02*
X188914333Y-91366666D01*
X189514333Y-92233333D02*
X188114333Y-92233333D01*
X188114333Y-92233333D02*
X189514333Y-93033333D01*
X189514333Y-93033333D02*
X188114333Y-93033333D01*
X189514333Y-93700000D02*
X188114333Y-93700000D01*
X188114333Y-93700000D02*
X188114333Y-94033333D01*
X188114333Y-94033333D02*
X188181000Y-94233333D01*
X188181000Y-94233333D02*
X188314333Y-94366667D01*
X188314333Y-94366667D02*
X188447666Y-94433333D01*
X188447666Y-94433333D02*
X188714333Y-94500000D01*
X188714333Y-94500000D02*
X188914333Y-94500000D01*
X188914333Y-94500000D02*
X189181000Y-94433333D01*
X189181000Y-94433333D02*
X189314333Y-94366667D01*
X189314333Y-94366667D02*
X189447666Y-94233333D01*
X189447666Y-94233333D02*
X189514333Y-94033333D01*
X189514333Y-94033333D02*
X189514333Y-93700000D01*
X173614333Y-91100000D02*
X173614333Y-91366666D01*
X173614333Y-91366666D02*
X173681000Y-91500000D01*
X173681000Y-91500000D02*
X173814333Y-91633333D01*
X173814333Y-91633333D02*
X174081000Y-91700000D01*
X174081000Y-91700000D02*
X174547666Y-91700000D01*
X174547666Y-91700000D02*
X174814333Y-91633333D01*
X174814333Y-91633333D02*
X174947666Y-91500000D01*
X174947666Y-91500000D02*
X175014333Y-91366666D01*
X175014333Y-91366666D02*
X175014333Y-91100000D01*
X175014333Y-91100000D02*
X174947666Y-90966666D01*
X174947666Y-90966666D02*
X174814333Y-90833333D01*
X174814333Y-90833333D02*
X174547666Y-90766666D01*
X174547666Y-90766666D02*
X174081000Y-90766666D01*
X174081000Y-90766666D02*
X173814333Y-90833333D01*
X173814333Y-90833333D02*
X173681000Y-90966666D01*
X173681000Y-90966666D02*
X173614333Y-91100000D01*
X173614333Y-92300000D02*
X174747666Y-92300000D01*
X174747666Y-92300000D02*
X174881000Y-92366667D01*
X174881000Y-92366667D02*
X174947666Y-92433333D01*
X174947666Y-92433333D02*
X175014333Y-92566667D01*
X175014333Y-92566667D02*
X175014333Y-92833333D01*
X175014333Y-92833333D02*
X174947666Y-92966667D01*
X174947666Y-92966667D02*
X174881000Y-93033333D01*
X174881000Y-93033333D02*
X174747666Y-93100000D01*
X174747666Y-93100000D02*
X173614333Y-93100000D01*
X173614333Y-93566667D02*
X173614333Y-94366667D01*
X175014333Y-93966667D02*
X173614333Y-93966667D01*
X173747666Y-94766667D02*
X173681000Y-94833334D01*
X173681000Y-94833334D02*
X173614333Y-94966667D01*
X173614333Y-94966667D02*
X173614333Y-95300001D01*
X173614333Y-95300001D02*
X173681000Y-95433334D01*
X173681000Y-95433334D02*
X173747666Y-95500001D01*
X173747666Y-95500001D02*
X173881000Y-95566667D01*
X173881000Y-95566667D02*
X174014333Y-95566667D01*
X174014333Y-95566667D02*
X174214333Y-95500001D01*
X174214333Y-95500001D02*
X175014333Y-94700001D01*
X175014333Y-94700001D02*
X175014333Y-95566667D01*
X177681000Y-91566666D02*
X177614333Y-91433333D01*
X177614333Y-91433333D02*
X177614333Y-91233333D01*
X177614333Y-91233333D02*
X177681000Y-91033333D01*
X177681000Y-91033333D02*
X177814333Y-90900000D01*
X177814333Y-90900000D02*
X177947666Y-90833333D01*
X177947666Y-90833333D02*
X178214333Y-90766666D01*
X178214333Y-90766666D02*
X178414333Y-90766666D01*
X178414333Y-90766666D02*
X178681000Y-90833333D01*
X178681000Y-90833333D02*
X178814333Y-90900000D01*
X178814333Y-90900000D02*
X178947666Y-91033333D01*
X178947666Y-91033333D02*
X179014333Y-91233333D01*
X179014333Y-91233333D02*
X179014333Y-91366666D01*
X179014333Y-91366666D02*
X178947666Y-91566666D01*
X178947666Y-91566666D02*
X178881000Y-91633333D01*
X178881000Y-91633333D02*
X178414333Y-91633333D01*
X178414333Y-91633333D02*
X178414333Y-91366666D01*
X179014333Y-92233333D02*
X177614333Y-92233333D01*
X177614333Y-92233333D02*
X179014333Y-93033333D01*
X179014333Y-93033333D02*
X177614333Y-93033333D01*
X179014333Y-93700000D02*
X177614333Y-93700000D01*
X177614333Y-93700000D02*
X177614333Y-94033333D01*
X177614333Y-94033333D02*
X177681000Y-94233333D01*
X177681000Y-94233333D02*
X177814333Y-94366667D01*
X177814333Y-94366667D02*
X177947666Y-94433333D01*
X177947666Y-94433333D02*
X178214333Y-94500000D01*
X178214333Y-94500000D02*
X178414333Y-94500000D01*
X178414333Y-94500000D02*
X178681000Y-94433333D01*
X178681000Y-94433333D02*
X178814333Y-94366667D01*
X178814333Y-94366667D02*
X178947666Y-94233333D01*
X178947666Y-94233333D02*
X179014333Y-94033333D01*
X179014333Y-94033333D02*
X179014333Y-93700000D01*
X163614333Y-91100000D02*
X163614333Y-91366666D01*
X163614333Y-91366666D02*
X163681000Y-91500000D01*
X163681000Y-91500000D02*
X163814333Y-91633333D01*
X163814333Y-91633333D02*
X164081000Y-91700000D01*
X164081000Y-91700000D02*
X164547666Y-91700000D01*
X164547666Y-91700000D02*
X164814333Y-91633333D01*
X164814333Y-91633333D02*
X164947666Y-91500000D01*
X164947666Y-91500000D02*
X165014333Y-91366666D01*
X165014333Y-91366666D02*
X165014333Y-91100000D01*
X165014333Y-91100000D02*
X164947666Y-90966666D01*
X164947666Y-90966666D02*
X164814333Y-90833333D01*
X164814333Y-90833333D02*
X164547666Y-90766666D01*
X164547666Y-90766666D02*
X164081000Y-90766666D01*
X164081000Y-90766666D02*
X163814333Y-90833333D01*
X163814333Y-90833333D02*
X163681000Y-90966666D01*
X163681000Y-90966666D02*
X163614333Y-91100000D01*
X163614333Y-92300000D02*
X164747666Y-92300000D01*
X164747666Y-92300000D02*
X164881000Y-92366667D01*
X164881000Y-92366667D02*
X164947666Y-92433333D01*
X164947666Y-92433333D02*
X165014333Y-92566667D01*
X165014333Y-92566667D02*
X165014333Y-92833333D01*
X165014333Y-92833333D02*
X164947666Y-92966667D01*
X164947666Y-92966667D02*
X164881000Y-93033333D01*
X164881000Y-93033333D02*
X164747666Y-93100000D01*
X164747666Y-93100000D02*
X163614333Y-93100000D01*
X163614333Y-93566667D02*
X163614333Y-94366667D01*
X165014333Y-93966667D02*
X163614333Y-93966667D01*
X163614333Y-94700001D02*
X163614333Y-95566667D01*
X163614333Y-95566667D02*
X164147666Y-95100001D01*
X164147666Y-95100001D02*
X164147666Y-95300001D01*
X164147666Y-95300001D02*
X164214333Y-95433334D01*
X164214333Y-95433334D02*
X164281000Y-95500001D01*
X164281000Y-95500001D02*
X164414333Y-95566667D01*
X164414333Y-95566667D02*
X164747666Y-95566667D01*
X164747666Y-95566667D02*
X164881000Y-95500001D01*
X164881000Y-95500001D02*
X164947666Y-95433334D01*
X164947666Y-95433334D02*
X165014333Y-95300001D01*
X165014333Y-95300001D02*
X165014333Y-94900001D01*
X165014333Y-94900001D02*
X164947666Y-94766667D01*
X164947666Y-94766667D02*
X164881000Y-94700001D01*
X167681000Y-91566666D02*
X167614333Y-91433333D01*
X167614333Y-91433333D02*
X167614333Y-91233333D01*
X167614333Y-91233333D02*
X167681000Y-91033333D01*
X167681000Y-91033333D02*
X167814333Y-90900000D01*
X167814333Y-90900000D02*
X167947666Y-90833333D01*
X167947666Y-90833333D02*
X168214333Y-90766666D01*
X168214333Y-90766666D02*
X168414333Y-90766666D01*
X168414333Y-90766666D02*
X168681000Y-90833333D01*
X168681000Y-90833333D02*
X168814333Y-90900000D01*
X168814333Y-90900000D02*
X168947666Y-91033333D01*
X168947666Y-91033333D02*
X169014333Y-91233333D01*
X169014333Y-91233333D02*
X169014333Y-91366666D01*
X169014333Y-91366666D02*
X168947666Y-91566666D01*
X168947666Y-91566666D02*
X168881000Y-91633333D01*
X168881000Y-91633333D02*
X168414333Y-91633333D01*
X168414333Y-91633333D02*
X168414333Y-91366666D01*
X169014333Y-92233333D02*
X167614333Y-92233333D01*
X167614333Y-92233333D02*
X169014333Y-93033333D01*
X169014333Y-93033333D02*
X167614333Y-93033333D01*
X169014333Y-93700000D02*
X167614333Y-93700000D01*
X167614333Y-93700000D02*
X167614333Y-94033333D01*
X167614333Y-94033333D02*
X167681000Y-94233333D01*
X167681000Y-94233333D02*
X167814333Y-94366667D01*
X167814333Y-94366667D02*
X167947666Y-94433333D01*
X167947666Y-94433333D02*
X168214333Y-94500000D01*
X168214333Y-94500000D02*
X168414333Y-94500000D01*
X168414333Y-94500000D02*
X168681000Y-94433333D01*
X168681000Y-94433333D02*
X168814333Y-94366667D01*
X168814333Y-94366667D02*
X168947666Y-94233333D01*
X168947666Y-94233333D02*
X169014333Y-94033333D01*
X169014333Y-94033333D02*
X169014333Y-93700000D01*
X153114333Y-91100000D02*
X153114333Y-91366666D01*
X153114333Y-91366666D02*
X153181000Y-91500000D01*
X153181000Y-91500000D02*
X153314333Y-91633333D01*
X153314333Y-91633333D02*
X153581000Y-91700000D01*
X153581000Y-91700000D02*
X154047666Y-91700000D01*
X154047666Y-91700000D02*
X154314333Y-91633333D01*
X154314333Y-91633333D02*
X154447666Y-91500000D01*
X154447666Y-91500000D02*
X154514333Y-91366666D01*
X154514333Y-91366666D02*
X154514333Y-91100000D01*
X154514333Y-91100000D02*
X154447666Y-90966666D01*
X154447666Y-90966666D02*
X154314333Y-90833333D01*
X154314333Y-90833333D02*
X154047666Y-90766666D01*
X154047666Y-90766666D02*
X153581000Y-90766666D01*
X153581000Y-90766666D02*
X153314333Y-90833333D01*
X153314333Y-90833333D02*
X153181000Y-90966666D01*
X153181000Y-90966666D02*
X153114333Y-91100000D01*
X153114333Y-92300000D02*
X154247666Y-92300000D01*
X154247666Y-92300000D02*
X154381000Y-92366667D01*
X154381000Y-92366667D02*
X154447666Y-92433333D01*
X154447666Y-92433333D02*
X154514333Y-92566667D01*
X154514333Y-92566667D02*
X154514333Y-92833333D01*
X154514333Y-92833333D02*
X154447666Y-92966667D01*
X154447666Y-92966667D02*
X154381000Y-93033333D01*
X154381000Y-93033333D02*
X154247666Y-93100000D01*
X154247666Y-93100000D02*
X153114333Y-93100000D01*
X153114333Y-93566667D02*
X153114333Y-94366667D01*
X154514333Y-93966667D02*
X153114333Y-93966667D01*
X153581000Y-95433334D02*
X154514333Y-95433334D01*
X153047666Y-95100001D02*
X154047666Y-94766667D01*
X154047666Y-94766667D02*
X154047666Y-95633334D01*
X157181000Y-91566666D02*
X157114333Y-91433333D01*
X157114333Y-91433333D02*
X157114333Y-91233333D01*
X157114333Y-91233333D02*
X157181000Y-91033333D01*
X157181000Y-91033333D02*
X157314333Y-90900000D01*
X157314333Y-90900000D02*
X157447666Y-90833333D01*
X157447666Y-90833333D02*
X157714333Y-90766666D01*
X157714333Y-90766666D02*
X157914333Y-90766666D01*
X157914333Y-90766666D02*
X158181000Y-90833333D01*
X158181000Y-90833333D02*
X158314333Y-90900000D01*
X158314333Y-90900000D02*
X158447666Y-91033333D01*
X158447666Y-91033333D02*
X158514333Y-91233333D01*
X158514333Y-91233333D02*
X158514333Y-91366666D01*
X158514333Y-91366666D02*
X158447666Y-91566666D01*
X158447666Y-91566666D02*
X158381000Y-91633333D01*
X158381000Y-91633333D02*
X157914333Y-91633333D01*
X157914333Y-91633333D02*
X157914333Y-91366666D01*
X158514333Y-92233333D02*
X157114333Y-92233333D01*
X157114333Y-92233333D02*
X158514333Y-93033333D01*
X158514333Y-93033333D02*
X157114333Y-93033333D01*
X158514333Y-93700000D02*
X157114333Y-93700000D01*
X157114333Y-93700000D02*
X157114333Y-94033333D01*
X157114333Y-94033333D02*
X157181000Y-94233333D01*
X157181000Y-94233333D02*
X157314333Y-94366667D01*
X157314333Y-94366667D02*
X157447666Y-94433333D01*
X157447666Y-94433333D02*
X157714333Y-94500000D01*
X157714333Y-94500000D02*
X157914333Y-94500000D01*
X157914333Y-94500000D02*
X158181000Y-94433333D01*
X158181000Y-94433333D02*
X158314333Y-94366667D01*
X158314333Y-94366667D02*
X158447666Y-94233333D01*
X158447666Y-94233333D02*
X158514333Y-94033333D01*
X158514333Y-94033333D02*
X158514333Y-93700000D01*
X143114333Y-91100000D02*
X143114333Y-91366666D01*
X143114333Y-91366666D02*
X143181000Y-91500000D01*
X143181000Y-91500000D02*
X143314333Y-91633333D01*
X143314333Y-91633333D02*
X143581000Y-91700000D01*
X143581000Y-91700000D02*
X144047666Y-91700000D01*
X144047666Y-91700000D02*
X144314333Y-91633333D01*
X144314333Y-91633333D02*
X144447666Y-91500000D01*
X144447666Y-91500000D02*
X144514333Y-91366666D01*
X144514333Y-91366666D02*
X144514333Y-91100000D01*
X144514333Y-91100000D02*
X144447666Y-90966666D01*
X144447666Y-90966666D02*
X144314333Y-90833333D01*
X144314333Y-90833333D02*
X144047666Y-90766666D01*
X144047666Y-90766666D02*
X143581000Y-90766666D01*
X143581000Y-90766666D02*
X143314333Y-90833333D01*
X143314333Y-90833333D02*
X143181000Y-90966666D01*
X143181000Y-90966666D02*
X143114333Y-91100000D01*
X143114333Y-92300000D02*
X144247666Y-92300000D01*
X144247666Y-92300000D02*
X144381000Y-92366667D01*
X144381000Y-92366667D02*
X144447666Y-92433333D01*
X144447666Y-92433333D02*
X144514333Y-92566667D01*
X144514333Y-92566667D02*
X144514333Y-92833333D01*
X144514333Y-92833333D02*
X144447666Y-92966667D01*
X144447666Y-92966667D02*
X144381000Y-93033333D01*
X144381000Y-93033333D02*
X144247666Y-93100000D01*
X144247666Y-93100000D02*
X143114333Y-93100000D01*
X143114333Y-93566667D02*
X143114333Y-94366667D01*
X144514333Y-93966667D02*
X143114333Y-93966667D01*
X143114333Y-95500001D02*
X143114333Y-94833334D01*
X143114333Y-94833334D02*
X143781000Y-94766667D01*
X143781000Y-94766667D02*
X143714333Y-94833334D01*
X143714333Y-94833334D02*
X143647666Y-94966667D01*
X143647666Y-94966667D02*
X143647666Y-95300001D01*
X143647666Y-95300001D02*
X143714333Y-95433334D01*
X143714333Y-95433334D02*
X143781000Y-95500001D01*
X143781000Y-95500001D02*
X143914333Y-95566667D01*
X143914333Y-95566667D02*
X144247666Y-95566667D01*
X144247666Y-95566667D02*
X144381000Y-95500001D01*
X144381000Y-95500001D02*
X144447666Y-95433334D01*
X144447666Y-95433334D02*
X144514333Y-95300001D01*
X144514333Y-95300001D02*
X144514333Y-94966667D01*
X144514333Y-94966667D02*
X144447666Y-94833334D01*
X144447666Y-94833334D02*
X144381000Y-94766667D01*
X147181000Y-91566666D02*
X147114333Y-91433333D01*
X147114333Y-91433333D02*
X147114333Y-91233333D01*
X147114333Y-91233333D02*
X147181000Y-91033333D01*
X147181000Y-91033333D02*
X147314333Y-90900000D01*
X147314333Y-90900000D02*
X147447666Y-90833333D01*
X147447666Y-90833333D02*
X147714333Y-90766666D01*
X147714333Y-90766666D02*
X147914333Y-90766666D01*
X147914333Y-90766666D02*
X148181000Y-90833333D01*
X148181000Y-90833333D02*
X148314333Y-90900000D01*
X148314333Y-90900000D02*
X148447666Y-91033333D01*
X148447666Y-91033333D02*
X148514333Y-91233333D01*
X148514333Y-91233333D02*
X148514333Y-91366666D01*
X148514333Y-91366666D02*
X148447666Y-91566666D01*
X148447666Y-91566666D02*
X148381000Y-91633333D01*
X148381000Y-91633333D02*
X147914333Y-91633333D01*
X147914333Y-91633333D02*
X147914333Y-91366666D01*
X148514333Y-92233333D02*
X147114333Y-92233333D01*
X147114333Y-92233333D02*
X148514333Y-93033333D01*
X148514333Y-93033333D02*
X147114333Y-93033333D01*
X148514333Y-93700000D02*
X147114333Y-93700000D01*
X147114333Y-93700000D02*
X147114333Y-94033333D01*
X147114333Y-94033333D02*
X147181000Y-94233333D01*
X147181000Y-94233333D02*
X147314333Y-94366667D01*
X147314333Y-94366667D02*
X147447666Y-94433333D01*
X147447666Y-94433333D02*
X147714333Y-94500000D01*
X147714333Y-94500000D02*
X147914333Y-94500000D01*
X147914333Y-94500000D02*
X148181000Y-94433333D01*
X148181000Y-94433333D02*
X148314333Y-94366667D01*
X148314333Y-94366667D02*
X148447666Y-94233333D01*
X148447666Y-94233333D02*
X148514333Y-94033333D01*
X148514333Y-94033333D02*
X148514333Y-93700000D01*
X133114333Y-91100000D02*
X133114333Y-91366666D01*
X133114333Y-91366666D02*
X133181000Y-91500000D01*
X133181000Y-91500000D02*
X133314333Y-91633333D01*
X133314333Y-91633333D02*
X133581000Y-91700000D01*
X133581000Y-91700000D02*
X134047666Y-91700000D01*
X134047666Y-91700000D02*
X134314333Y-91633333D01*
X134314333Y-91633333D02*
X134447666Y-91500000D01*
X134447666Y-91500000D02*
X134514333Y-91366666D01*
X134514333Y-91366666D02*
X134514333Y-91100000D01*
X134514333Y-91100000D02*
X134447666Y-90966666D01*
X134447666Y-90966666D02*
X134314333Y-90833333D01*
X134314333Y-90833333D02*
X134047666Y-90766666D01*
X134047666Y-90766666D02*
X133581000Y-90766666D01*
X133581000Y-90766666D02*
X133314333Y-90833333D01*
X133314333Y-90833333D02*
X133181000Y-90966666D01*
X133181000Y-90966666D02*
X133114333Y-91100000D01*
X133114333Y-92300000D02*
X134247666Y-92300000D01*
X134247666Y-92300000D02*
X134381000Y-92366667D01*
X134381000Y-92366667D02*
X134447666Y-92433333D01*
X134447666Y-92433333D02*
X134514333Y-92566667D01*
X134514333Y-92566667D02*
X134514333Y-92833333D01*
X134514333Y-92833333D02*
X134447666Y-92966667D01*
X134447666Y-92966667D02*
X134381000Y-93033333D01*
X134381000Y-93033333D02*
X134247666Y-93100000D01*
X134247666Y-93100000D02*
X133114333Y-93100000D01*
X133114333Y-93566667D02*
X133114333Y-94366667D01*
X134514333Y-93966667D02*
X133114333Y-93966667D01*
X133114333Y-95433334D02*
X133114333Y-95166667D01*
X133114333Y-95166667D02*
X133181000Y-95033334D01*
X133181000Y-95033334D02*
X133247666Y-94966667D01*
X133247666Y-94966667D02*
X133447666Y-94833334D01*
X133447666Y-94833334D02*
X133714333Y-94766667D01*
X133714333Y-94766667D02*
X134247666Y-94766667D01*
X134247666Y-94766667D02*
X134381000Y-94833334D01*
X134381000Y-94833334D02*
X134447666Y-94900001D01*
X134447666Y-94900001D02*
X134514333Y-95033334D01*
X134514333Y-95033334D02*
X134514333Y-95300001D01*
X134514333Y-95300001D02*
X134447666Y-95433334D01*
X134447666Y-95433334D02*
X134381000Y-95500001D01*
X134381000Y-95500001D02*
X134247666Y-95566667D01*
X134247666Y-95566667D02*
X133914333Y-95566667D01*
X133914333Y-95566667D02*
X133781000Y-95500001D01*
X133781000Y-95500001D02*
X133714333Y-95433334D01*
X133714333Y-95433334D02*
X133647666Y-95300001D01*
X133647666Y-95300001D02*
X133647666Y-95033334D01*
X133647666Y-95033334D02*
X133714333Y-94900001D01*
X133714333Y-94900001D02*
X133781000Y-94833334D01*
X133781000Y-94833334D02*
X133914333Y-94766667D01*
X137181000Y-91566666D02*
X137114333Y-91433333D01*
X137114333Y-91433333D02*
X137114333Y-91233333D01*
X137114333Y-91233333D02*
X137181000Y-91033333D01*
X137181000Y-91033333D02*
X137314333Y-90900000D01*
X137314333Y-90900000D02*
X137447666Y-90833333D01*
X137447666Y-90833333D02*
X137714333Y-90766666D01*
X137714333Y-90766666D02*
X137914333Y-90766666D01*
X137914333Y-90766666D02*
X138181000Y-90833333D01*
X138181000Y-90833333D02*
X138314333Y-90900000D01*
X138314333Y-90900000D02*
X138447666Y-91033333D01*
X138447666Y-91033333D02*
X138514333Y-91233333D01*
X138514333Y-91233333D02*
X138514333Y-91366666D01*
X138514333Y-91366666D02*
X138447666Y-91566666D01*
X138447666Y-91566666D02*
X138381000Y-91633333D01*
X138381000Y-91633333D02*
X137914333Y-91633333D01*
X137914333Y-91633333D02*
X137914333Y-91366666D01*
X138514333Y-92233333D02*
X137114333Y-92233333D01*
X137114333Y-92233333D02*
X138514333Y-93033333D01*
X138514333Y-93033333D02*
X137114333Y-93033333D01*
X138514333Y-93700000D02*
X137114333Y-93700000D01*
X137114333Y-93700000D02*
X137114333Y-94033333D01*
X137114333Y-94033333D02*
X137181000Y-94233333D01*
X137181000Y-94233333D02*
X137314333Y-94366667D01*
X137314333Y-94366667D02*
X137447666Y-94433333D01*
X137447666Y-94433333D02*
X137714333Y-94500000D01*
X137714333Y-94500000D02*
X137914333Y-94500000D01*
X137914333Y-94500000D02*
X138181000Y-94433333D01*
X138181000Y-94433333D02*
X138314333Y-94366667D01*
X138314333Y-94366667D02*
X138447666Y-94233333D01*
X138447666Y-94233333D02*
X138514333Y-94033333D01*
X138514333Y-94033333D02*
X138514333Y-93700000D01*
X122614333Y-91100000D02*
X122614333Y-91366666D01*
X122614333Y-91366666D02*
X122681000Y-91500000D01*
X122681000Y-91500000D02*
X122814333Y-91633333D01*
X122814333Y-91633333D02*
X123081000Y-91700000D01*
X123081000Y-91700000D02*
X123547666Y-91700000D01*
X123547666Y-91700000D02*
X123814333Y-91633333D01*
X123814333Y-91633333D02*
X123947666Y-91500000D01*
X123947666Y-91500000D02*
X124014333Y-91366666D01*
X124014333Y-91366666D02*
X124014333Y-91100000D01*
X124014333Y-91100000D02*
X123947666Y-90966666D01*
X123947666Y-90966666D02*
X123814333Y-90833333D01*
X123814333Y-90833333D02*
X123547666Y-90766666D01*
X123547666Y-90766666D02*
X123081000Y-90766666D01*
X123081000Y-90766666D02*
X122814333Y-90833333D01*
X122814333Y-90833333D02*
X122681000Y-90966666D01*
X122681000Y-90966666D02*
X122614333Y-91100000D01*
X122614333Y-92300000D02*
X123747666Y-92300000D01*
X123747666Y-92300000D02*
X123881000Y-92366667D01*
X123881000Y-92366667D02*
X123947666Y-92433333D01*
X123947666Y-92433333D02*
X124014333Y-92566667D01*
X124014333Y-92566667D02*
X124014333Y-92833333D01*
X124014333Y-92833333D02*
X123947666Y-92966667D01*
X123947666Y-92966667D02*
X123881000Y-93033333D01*
X123881000Y-93033333D02*
X123747666Y-93100000D01*
X123747666Y-93100000D02*
X122614333Y-93100000D01*
X122614333Y-93566667D02*
X122614333Y-94366667D01*
X124014333Y-93966667D02*
X122614333Y-93966667D01*
X122614333Y-94700001D02*
X122614333Y-95633334D01*
X122614333Y-95633334D02*
X124014333Y-95033334D01*
X126681000Y-91566666D02*
X126614333Y-91433333D01*
X126614333Y-91433333D02*
X126614333Y-91233333D01*
X126614333Y-91233333D02*
X126681000Y-91033333D01*
X126681000Y-91033333D02*
X126814333Y-90900000D01*
X126814333Y-90900000D02*
X126947666Y-90833333D01*
X126947666Y-90833333D02*
X127214333Y-90766666D01*
X127214333Y-90766666D02*
X127414333Y-90766666D01*
X127414333Y-90766666D02*
X127681000Y-90833333D01*
X127681000Y-90833333D02*
X127814333Y-90900000D01*
X127814333Y-90900000D02*
X127947666Y-91033333D01*
X127947666Y-91033333D02*
X128014333Y-91233333D01*
X128014333Y-91233333D02*
X128014333Y-91366666D01*
X128014333Y-91366666D02*
X127947666Y-91566666D01*
X127947666Y-91566666D02*
X127881000Y-91633333D01*
X127881000Y-91633333D02*
X127414333Y-91633333D01*
X127414333Y-91633333D02*
X127414333Y-91366666D01*
X128014333Y-92233333D02*
X126614333Y-92233333D01*
X126614333Y-92233333D02*
X128014333Y-93033333D01*
X128014333Y-93033333D02*
X126614333Y-93033333D01*
X128014333Y-93700000D02*
X126614333Y-93700000D01*
X126614333Y-93700000D02*
X126614333Y-94033333D01*
X126614333Y-94033333D02*
X126681000Y-94233333D01*
X126681000Y-94233333D02*
X126814333Y-94366667D01*
X126814333Y-94366667D02*
X126947666Y-94433333D01*
X126947666Y-94433333D02*
X127214333Y-94500000D01*
X127214333Y-94500000D02*
X127414333Y-94500000D01*
X127414333Y-94500000D02*
X127681000Y-94433333D01*
X127681000Y-94433333D02*
X127814333Y-94366667D01*
X127814333Y-94366667D02*
X127947666Y-94233333D01*
X127947666Y-94233333D02*
X128014333Y-94033333D01*
X128014333Y-94033333D02*
X128014333Y-93700000D01*
X112114333Y-91100000D02*
X112114333Y-91366666D01*
X112114333Y-91366666D02*
X112181000Y-91500000D01*
X112181000Y-91500000D02*
X112314333Y-91633333D01*
X112314333Y-91633333D02*
X112581000Y-91700000D01*
X112581000Y-91700000D02*
X113047666Y-91700000D01*
X113047666Y-91700000D02*
X113314333Y-91633333D01*
X113314333Y-91633333D02*
X113447666Y-91500000D01*
X113447666Y-91500000D02*
X113514333Y-91366666D01*
X113514333Y-91366666D02*
X113514333Y-91100000D01*
X113514333Y-91100000D02*
X113447666Y-90966666D01*
X113447666Y-90966666D02*
X113314333Y-90833333D01*
X113314333Y-90833333D02*
X113047666Y-90766666D01*
X113047666Y-90766666D02*
X112581000Y-90766666D01*
X112581000Y-90766666D02*
X112314333Y-90833333D01*
X112314333Y-90833333D02*
X112181000Y-90966666D01*
X112181000Y-90966666D02*
X112114333Y-91100000D01*
X112114333Y-92300000D02*
X113247666Y-92300000D01*
X113247666Y-92300000D02*
X113381000Y-92366667D01*
X113381000Y-92366667D02*
X113447666Y-92433333D01*
X113447666Y-92433333D02*
X113514333Y-92566667D01*
X113514333Y-92566667D02*
X113514333Y-92833333D01*
X113514333Y-92833333D02*
X113447666Y-92966667D01*
X113447666Y-92966667D02*
X113381000Y-93033333D01*
X113381000Y-93033333D02*
X113247666Y-93100000D01*
X113247666Y-93100000D02*
X112114333Y-93100000D01*
X112114333Y-93566667D02*
X112114333Y-94366667D01*
X113514333Y-93966667D02*
X112114333Y-93966667D01*
X112714333Y-95033334D02*
X112647666Y-94900001D01*
X112647666Y-94900001D02*
X112581000Y-94833334D01*
X112581000Y-94833334D02*
X112447666Y-94766667D01*
X112447666Y-94766667D02*
X112381000Y-94766667D01*
X112381000Y-94766667D02*
X112247666Y-94833334D01*
X112247666Y-94833334D02*
X112181000Y-94900001D01*
X112181000Y-94900001D02*
X112114333Y-95033334D01*
X112114333Y-95033334D02*
X112114333Y-95300001D01*
X112114333Y-95300001D02*
X112181000Y-95433334D01*
X112181000Y-95433334D02*
X112247666Y-95500001D01*
X112247666Y-95500001D02*
X112381000Y-95566667D01*
X112381000Y-95566667D02*
X112447666Y-95566667D01*
X112447666Y-95566667D02*
X112581000Y-95500001D01*
X112581000Y-95500001D02*
X112647666Y-95433334D01*
X112647666Y-95433334D02*
X112714333Y-95300001D01*
X112714333Y-95300001D02*
X112714333Y-95033334D01*
X112714333Y-95033334D02*
X112781000Y-94900001D01*
X112781000Y-94900001D02*
X112847666Y-94833334D01*
X112847666Y-94833334D02*
X112981000Y-94766667D01*
X112981000Y-94766667D02*
X113247666Y-94766667D01*
X113247666Y-94766667D02*
X113381000Y-94833334D01*
X113381000Y-94833334D02*
X113447666Y-94900001D01*
X113447666Y-94900001D02*
X113514333Y-95033334D01*
X113514333Y-95033334D02*
X113514333Y-95300001D01*
X113514333Y-95300001D02*
X113447666Y-95433334D01*
X113447666Y-95433334D02*
X113381000Y-95500001D01*
X113381000Y-95500001D02*
X113247666Y-95566667D01*
X113247666Y-95566667D02*
X112981000Y-95566667D01*
X112981000Y-95566667D02*
X112847666Y-95500001D01*
X112847666Y-95500001D02*
X112781000Y-95433334D01*
X112781000Y-95433334D02*
X112714333Y-95300001D01*
X116181000Y-91566666D02*
X116114333Y-91433333D01*
X116114333Y-91433333D02*
X116114333Y-91233333D01*
X116114333Y-91233333D02*
X116181000Y-91033333D01*
X116181000Y-91033333D02*
X116314333Y-90900000D01*
X116314333Y-90900000D02*
X116447666Y-90833333D01*
X116447666Y-90833333D02*
X116714333Y-90766666D01*
X116714333Y-90766666D02*
X116914333Y-90766666D01*
X116914333Y-90766666D02*
X117181000Y-90833333D01*
X117181000Y-90833333D02*
X117314333Y-90900000D01*
X117314333Y-90900000D02*
X117447666Y-91033333D01*
X117447666Y-91033333D02*
X117514333Y-91233333D01*
X117514333Y-91233333D02*
X117514333Y-91366666D01*
X117514333Y-91366666D02*
X117447666Y-91566666D01*
X117447666Y-91566666D02*
X117381000Y-91633333D01*
X117381000Y-91633333D02*
X116914333Y-91633333D01*
X116914333Y-91633333D02*
X116914333Y-91366666D01*
X117514333Y-92233333D02*
X116114333Y-92233333D01*
X116114333Y-92233333D02*
X117514333Y-93033333D01*
X117514333Y-93033333D02*
X116114333Y-93033333D01*
X117514333Y-93700000D02*
X116114333Y-93700000D01*
X116114333Y-93700000D02*
X116114333Y-94033333D01*
X116114333Y-94033333D02*
X116181000Y-94233333D01*
X116181000Y-94233333D02*
X116314333Y-94366667D01*
X116314333Y-94366667D02*
X116447666Y-94433333D01*
X116447666Y-94433333D02*
X116714333Y-94500000D01*
X116714333Y-94500000D02*
X116914333Y-94500000D01*
X116914333Y-94500000D02*
X117181000Y-94433333D01*
X117181000Y-94433333D02*
X117314333Y-94366667D01*
X117314333Y-94366667D02*
X117447666Y-94233333D01*
X117447666Y-94233333D02*
X117514333Y-94033333D01*
X117514333Y-94033333D02*
X117514333Y-93700000D01*
X98638000Y-103066666D02*
X98704666Y-103199999D01*
X98704666Y-103199999D02*
X98704666Y-103399999D01*
X98704666Y-103399999D02*
X98638000Y-103599999D01*
X98638000Y-103599999D02*
X98504666Y-103733333D01*
X98504666Y-103733333D02*
X98371333Y-103799999D01*
X98371333Y-103799999D02*
X98104666Y-103866666D01*
X98104666Y-103866666D02*
X97904666Y-103866666D01*
X97904666Y-103866666D02*
X97638000Y-103799999D01*
X97638000Y-103799999D02*
X97504666Y-103733333D01*
X97504666Y-103733333D02*
X97371333Y-103599999D01*
X97371333Y-103599999D02*
X97304666Y-103399999D01*
X97304666Y-103399999D02*
X97304666Y-103266666D01*
X97304666Y-103266666D02*
X97371333Y-103066666D01*
X97371333Y-103066666D02*
X97438000Y-102999999D01*
X97438000Y-102999999D02*
X97904666Y-102999999D01*
X97904666Y-102999999D02*
X97904666Y-103266666D01*
X97304666Y-102399999D02*
X98704666Y-102399999D01*
X98704666Y-102399999D02*
X97304666Y-101599999D01*
X97304666Y-101599999D02*
X98704666Y-101599999D01*
X97304666Y-100933332D02*
X98704666Y-100933332D01*
X98704666Y-100933332D02*
X98704666Y-100599999D01*
X98704666Y-100599999D02*
X98638000Y-100399999D01*
X98638000Y-100399999D02*
X98504666Y-100266666D01*
X98504666Y-100266666D02*
X98371333Y-100199999D01*
X98371333Y-100199999D02*
X98104666Y-100133332D01*
X98104666Y-100133332D02*
X97904666Y-100133332D01*
X97904666Y-100133332D02*
X97638000Y-100199999D01*
X97638000Y-100199999D02*
X97504666Y-100266666D01*
X97504666Y-100266666D02*
X97371333Y-100399999D01*
X97371333Y-100399999D02*
X97304666Y-100599999D01*
X97304666Y-100599999D02*
X97304666Y-100933332D01*
X97304666Y-112066666D02*
X97304666Y-111799999D01*
X97304666Y-111799999D02*
X97371333Y-111666666D01*
X97371333Y-111666666D02*
X97438000Y-111599999D01*
X97438000Y-111599999D02*
X97638000Y-111466666D01*
X97638000Y-111466666D02*
X97904666Y-111399999D01*
X97904666Y-111399999D02*
X98438000Y-111399999D01*
X98438000Y-111399999D02*
X98571333Y-111466666D01*
X98571333Y-111466666D02*
X98638000Y-111533332D01*
X98638000Y-111533332D02*
X98704666Y-111666666D01*
X98704666Y-111666666D02*
X98704666Y-111933332D01*
X98704666Y-111933332D02*
X98638000Y-112066666D01*
X98638000Y-112066666D02*
X98571333Y-112133332D01*
X98571333Y-112133332D02*
X98438000Y-112199999D01*
X98438000Y-112199999D02*
X98104666Y-112199999D01*
X98104666Y-112199999D02*
X97971333Y-112133332D01*
X97971333Y-112133332D02*
X97904666Y-112066666D01*
X97904666Y-112066666D02*
X97838000Y-111933332D01*
X97838000Y-111933332D02*
X97838000Y-111666666D01*
X97838000Y-111666666D02*
X97904666Y-111533332D01*
X97904666Y-111533332D02*
X97971333Y-111466666D01*
X97971333Y-111466666D02*
X98104666Y-111399999D01*
X97838000Y-110799999D02*
X97838000Y-109733333D01*
X98571333Y-109133333D02*
X98638000Y-109066666D01*
X98638000Y-109066666D02*
X98704666Y-108933333D01*
X98704666Y-108933333D02*
X98704666Y-108600000D01*
X98704666Y-108600000D02*
X98638000Y-108466666D01*
X98638000Y-108466666D02*
X98571333Y-108400000D01*
X98571333Y-108400000D02*
X98438000Y-108333333D01*
X98438000Y-108333333D02*
X98304666Y-108333333D01*
X98304666Y-108333333D02*
X98104666Y-108400000D01*
X98104666Y-108400000D02*
X97304666Y-109200000D01*
X97304666Y-109200000D02*
X97304666Y-108333333D01*
X98238000Y-107133333D02*
X97304666Y-107133333D01*
X98771333Y-107466667D02*
X97771333Y-107800000D01*
X97771333Y-107800000D02*
X97771333Y-106933333D01*
X98704666Y-106600000D02*
X97304666Y-106133334D01*
X97304666Y-106133334D02*
X98704666Y-105666667D01*
M02*
