%TF.GenerationSoftware,KiCad,Pcbnew,(7.0.0)*%
%TF.CreationDate,2023-04-18T13:38:52+09:00*%
%TF.ProjectId,Artnet_pixel_controller_Teensy-hardware,4172746e-6574-45f7-9069-78656c5f636f,v0.1.0*%
%TF.SameCoordinates,Original*%
%TF.FileFunction,Profile,NP*%
%FSLAX46Y46*%
G04 Gerber Fmt 4.6, Leading zero omitted, Abs format (unit mm)*
G04 Created by KiCad (PCBNEW (7.0.0)) date 2023-04-18 13:38:52*
%MOMM*%
%LPD*%
G01*
G04 APERTURE LIST*
%TA.AperFunction,Profile*%
%ADD10C,0.100000*%
%TD*%
%TA.AperFunction,Profile*%
%ADD11C,0.500000*%
%TD*%
G04 APERTURE END LIST*
D10*
X203000000Y-75000000D02*
G75*
G03*
X201000000Y-73000000I-2000000J0D01*
G01*
X203000000Y-89000000D02*
G75*
G03*
X206000000Y-92000000I3000000J0D01*
G01*
X203000000Y-83000000D02*
X203000000Y-89000000D01*
X90000000Y-94000000D02*
X90000000Y-129000000D01*
X201000000Y-150000000D02*
X101000000Y-150000000D01*
X96000000Y-131000000D02*
X92000000Y-131000000D01*
X206000000Y-92000000D02*
X210000000Y-92000000D01*
X101000000Y-73000000D02*
G75*
G03*
X99000000Y-75000000I0J-2000000D01*
G01*
X210000000Y-131000000D02*
G75*
G03*
X212000000Y-129000000I0J2000000D01*
G01*
X99000000Y-148000000D02*
G75*
G03*
X101000000Y-150000000I2000000J0D01*
G01*
D11*
X203000000Y-83000000D02*
X99000000Y-83000000D01*
D10*
X96000000Y-92000000D02*
G75*
G03*
X99000000Y-89000000I0J3000000D01*
G01*
X203000000Y-83000000D02*
X203000000Y-75000000D01*
X203000000Y-140000000D02*
X203000000Y-148000000D01*
X99000000Y-89000000D02*
X99000000Y-83000000D01*
X201000000Y-150000000D02*
G75*
G03*
X203000000Y-148000000I0J2000000D01*
G01*
X92000000Y-92000000D02*
X96000000Y-92000000D01*
X101000000Y-73000000D02*
X201000000Y-73000000D01*
X99000000Y-140000000D02*
X99000000Y-134000000D01*
X203000000Y-134000000D02*
X203000000Y-140000000D01*
X92000000Y-92000000D02*
G75*
G03*
X90000000Y-94000000I0J-2000000D01*
G01*
X99000000Y-134000000D02*
G75*
G03*
X96000000Y-131000000I-3000000J0D01*
G01*
X212000000Y-129000000D02*
X212000000Y-94000000D01*
D11*
X99000000Y-140000000D02*
X203000000Y-140000000D01*
D10*
X210000000Y-131000000D02*
X206000000Y-131000000D01*
X212000000Y-94000000D02*
G75*
G03*
X210000000Y-92000000I-2000000J0D01*
G01*
X90000000Y-129000000D02*
G75*
G03*
X92000000Y-131000000I2000000J0D01*
G01*
X99000000Y-83000000D02*
X99000000Y-75000000D01*
X99000000Y-140000000D02*
X99000000Y-148000000D01*
X206000000Y-131000000D02*
G75*
G03*
X203000000Y-134000000I0J-3000000D01*
G01*
M02*
