%TF.GenerationSoftware,KiCad,Pcbnew,(7.0.0)*%
%TF.CreationDate,2023-04-18T13:38:52+09:00*%
%TF.ProjectId,Artnet_pixel_controller_Teensy-hardware,4172746e-6574-45f7-9069-78656c5f636f,v0.1.0*%
%TF.SameCoordinates,Original*%
%TF.FileFunction,Soldermask,Bot*%
%TF.FilePolarity,Negative*%
%FSLAX46Y46*%
G04 Gerber Fmt 4.6, Leading zero omitted, Abs format (unit mm)*
G04 Created by KiCad (PCBNEW (7.0.0)) date 2023-04-18 13:38:52*
%MOMM*%
%LPD*%
G01*
G04 APERTURE LIST*
G04 Aperture macros list*
%AMRoundRect*
0 Rectangle with rounded corners*
0 $1 Rounding radius*
0 $2 $3 $4 $5 $6 $7 $8 $9 X,Y pos of 4 corners*
0 Add a 4 corners polygon primitive as box body*
4,1,4,$2,$3,$4,$5,$6,$7,$8,$9,$2,$3,0*
0 Add four circle primitives for the rounded corners*
1,1,$1+$1,$2,$3*
1,1,$1+$1,$4,$5*
1,1,$1+$1,$6,$7*
1,1,$1+$1,$8,$9*
0 Add four rect primitives between the rounded corners*
20,1,$1+$1,$2,$3,$4,$5,0*
20,1,$1+$1,$4,$5,$6,$7,0*
20,1,$1+$1,$6,$7,$8,$9,0*
20,1,$1+$1,$8,$9,$2,$3,0*%
G04 Aperture macros list end*
%ADD10C,6.400000*%
%ADD11RoundRect,0.250000X-1.550000X0.650000X-1.550000X-0.650000X1.550000X-0.650000X1.550000X0.650000X0*%
%ADD12O,3.600000X1.800000*%
%ADD13R,2.000000X4.600000*%
%ADD14O,2.000000X4.200000*%
%ADD15O,4.200000X2.000000*%
%ADD16R,1.600000X1.600000*%
%ADD17C,1.600000*%
%ADD18R,1.300000X1.300000*%
%ADD19C,1.300000*%
%ADD20O,1.600000X1.600000*%
%ADD21RoundRect,0.250000X0.650000X1.550000X-0.650000X1.550000X-0.650000X-1.550000X0.650000X-1.550000X0*%
%ADD22O,1.800000X3.600000*%
%ADD23C,1.524000*%
%ADD24R,1.524000X1.524000*%
%ADD25C,2.700000*%
%ADD26O,5.000000X4.000000*%
%ADD27R,1.500000X2.300000*%
%ADD28O,1.500000X2.300000*%
%ADD29C,4.000000*%
G04 APERTURE END LIST*
D10*
%TO.C,H5*%
X196000000Y-91500000D03*
%TD*%
D11*
%TO.C,J11*%
X94682500Y-94840000D03*
D12*
X94682499Y-98649999D03*
X94682499Y-102459999D03*
X94682499Y-106269999D03*
%TD*%
D13*
%TO.C,J1*%
X99999999Y-121499999D03*
D14*
X93699999Y-121499999D03*
D15*
X97099999Y-126299999D03*
%TD*%
D10*
%TO.C,H6*%
X196000000Y-131500000D03*
%TD*%
D16*
%TO.C,U2*%
X190709999Y-100379999D03*
D17*
X188170000Y-100380000D03*
X185630000Y-100380000D03*
X183090000Y-100380000D03*
X180550000Y-100380000D03*
X178010000Y-100380000D03*
X175470000Y-100380000D03*
X172930000Y-100380000D03*
X170390000Y-100380000D03*
X167850000Y-100380000D03*
X165310000Y-100380000D03*
X162770000Y-100380000D03*
X160230000Y-100380000D03*
X157690000Y-100380000D03*
X155150000Y-100380000D03*
X152610000Y-100380000D03*
X150070000Y-100380000D03*
X147530000Y-100380000D03*
X144990000Y-100380000D03*
X142450000Y-100380000D03*
X139910000Y-100380000D03*
X137370000Y-100380000D03*
X134830000Y-100380000D03*
X132290000Y-100380000D03*
X132290000Y-115620000D03*
X134830000Y-115620000D03*
X137370000Y-115620000D03*
X139910000Y-115620000D03*
X142450000Y-115620000D03*
X144990000Y-115620000D03*
X147530000Y-115620000D03*
X150070000Y-115620000D03*
X152610000Y-115620000D03*
X155150000Y-115620000D03*
X157690000Y-115620000D03*
X160230000Y-115620000D03*
X162770000Y-115620000D03*
X165310000Y-115620000D03*
X167850000Y-115620000D03*
X170390000Y-115620000D03*
X172930000Y-115620000D03*
X175470000Y-115620000D03*
X178010000Y-115620000D03*
X180550000Y-115620000D03*
X183090000Y-115620000D03*
X185630000Y-115620000D03*
X188170000Y-115620000D03*
X190710000Y-115620000D03*
D18*
X177739999Y-113181599D03*
D19*
X177740000Y-111181600D03*
X177740000Y-109181600D03*
X175740000Y-109181600D03*
X175740000Y-111181600D03*
X175740000Y-113181600D03*
%TD*%
D16*
%TO.C,SW1*%
X130799999Y-137619999D03*
D20*
X133339999Y-137619999D03*
X135879999Y-137619999D03*
X138419999Y-137619999D03*
X140959999Y-137619999D03*
X143499999Y-137619999D03*
X146039999Y-137619999D03*
X148579999Y-137619999D03*
X148579999Y-129999999D03*
X146039999Y-129999999D03*
X143499999Y-129999999D03*
X140959999Y-129999999D03*
X138419999Y-129999999D03*
X135879999Y-129999999D03*
X133339999Y-129999999D03*
X130799999Y-129999999D03*
%TD*%
D21*
%TO.C,J6*%
X147600000Y-87932500D03*
D22*
X143789999Y-87932499D03*
%TD*%
D21*
%TO.C,J5*%
X137350000Y-87932500D03*
D22*
X133539999Y-87932499D03*
%TD*%
D10*
%TO.C,H1*%
X106000000Y-91500000D03*
%TD*%
D23*
%TO.C,J2*%
X175275000Y-132750000D03*
X163845000Y-132750000D03*
D24*
X173999999Y-123859999D03*
X172729999Y-126399999D03*
X171459999Y-123859999D03*
X170189999Y-126489999D03*
X168919999Y-123859999D03*
X167649999Y-126489999D03*
X166379999Y-123859999D03*
X165109999Y-126489999D03*
D17*
X176285000Y-135290000D03*
X176285000Y-137320000D03*
X162835000Y-135290000D03*
X162835000Y-137320000D03*
D25*
X177435000Y-129700000D03*
X161685000Y-129700000D03*
%TD*%
D10*
%TO.C,H4*%
X156000000Y-131500000D03*
%TD*%
D21*
%TO.C,J9*%
X178350000Y-87932500D03*
D22*
X174539999Y-87932499D03*
%TD*%
D26*
%TO.C,H7*%
X195999999Y-144999999D03*
%TD*%
D21*
%TO.C,J4*%
X127100000Y-87932500D03*
D22*
X123289999Y-87932499D03*
%TD*%
D21*
%TO.C,J8*%
X168100000Y-87932500D03*
D22*
X164289999Y-87932499D03*
%TD*%
D21*
%TO.C,J7*%
X157850000Y-87932500D03*
D22*
X154039999Y-87932499D03*
%TD*%
D27*
%TO.C,U1*%
X119999999Y-124499999D03*
D28*
X117459999Y-124499999D03*
X114919999Y-124499999D03*
%TD*%
D10*
%TO.C,H2*%
X106000000Y-131500000D03*
%TD*%
D21*
%TO.C,J3*%
X116850000Y-87932500D03*
D22*
X113039999Y-87932499D03*
%TD*%
D21*
%TO.C,J10*%
X188600000Y-87932500D03*
D22*
X184789999Y-87932499D03*
%TD*%
D29*
%TO.C,H3*%
X104000000Y-145000000D03*
%TD*%
M02*
